<?xml version="1.0" encoding="utf-8"?>
<!-- Generator: Adobe Illustrator 26.5.0, SVG Export Plug-In . SVG Version: 6.00 Build 0)  -->
<svg version="1.1" id="Layer_1" xmlns="http://www.w3.org/2000/svg" xmlns:xlink="http://www.w3.org/1999/xlink" x="0px" y="0px"
	 viewBox="0 0 335.8 126" style="enable-background:new 0 0 335.8 126;" xml:space="preserve">
<style type="text/css">
	.st0{fill:none;}
	.st1{fill:#00AEEF;}
	.st2{fill:#00AEEF;}
</style>
<g>
	<path class="st0" d="M226.8,39.3c-1.3-1.3-2.9-2.4-4.7-3.2s-3.7-1.1-5.8-1.1h-10.2v30h10.2c2.1,0,4-0.5,5.8-1.3s3.4-1.9,4.7-3.4
		s2.4-3.1,3.1-4.8c0.8-1.8,1.1-3.7,1.1-5.8s-0.3-4-1.1-5.8C229.3,42.2,228.1,40.6,226.8,39.3z"/>
	<path class="st0" d="M155.5,44.3c-2.4-2.4-5.3-4.4-8.5-5.8s-6.8-2.1-10.3-2.1c-3.7,0-7.3,0.6-10.5,2.1s-6.1,3.4-8.5,5.8
		s-4.4,5.2-5.8,8.4s-2.1,6.6-2.1,10.3c0,3.5,0.6,6.9,2.1,10.2s3.2,6.1,5.8,8.5c2.4,2.4,5.3,4.4,8.5,5.8c3.2,1.5,6.8,2.1,10.5,2.1
		s7.1-0.6,10.3-2.1c3.2-1.4,6.1-3.4,8.5-5.8s4.4-5.3,5.8-8.5s2.1-6.6,2.1-10.2c0-3.7-0.6-7.1-2.1-10.3S157.9,46.7,155.5,44.3z"/>
	<path class="st1" d="M166.4,33.7c-3.9-3.7-8.4-6.6-13.4-8.9c-5.2-2.1-10.5-3.2-16.3-3.2s-11.1,1.1-16.3,3.2
		c-5.2,2.1-9.7,5-13.4,8.7c-3.9,3.7-6.9,8.1-9,13.1c-0.5,1-0.8,1.9-1.1,2.7h-7.7h-1.1c-4.7-8.4-13.7-14-24-14
		c-15.3,0-27.7,12.4-27.7,27.7s12.4,27.7,27.7,27.7c10.3,0,19.3-5.6,24-14h1.1h7.9c0.3,0.8,0.6,1.6,1,2.4c2.3,5,5.3,9.3,9,13.1
		c3.9,3.7,8.4,6.6,13.4,8.9s10.6,3.2,16.3,3.2c5.8,0,11.1-1.1,16.3-3.2s9.5-5.2,13.4-8.9c3.9-3.7,6.9-8.1,9-13.1
		c2.3-5,3.4-10.5,3.4-16.1c0-5.8-1.1-11.1-3.4-16.1C173.2,41.9,170.1,37.4,166.4,33.7z M161.3,73.2c-1.4,3.2-3.2,6.1-5.8,8.5
		c-2.4,2.4-5.3,4.4-8.5,5.8c-3.2,1.5-6.8,2.1-10.3,2.1c-3.7,0-7.3-0.6-10.5-2.1c-3.2-1.4-6.1-3.4-8.5-5.8s-4.4-5.3-5.8-8.5
		s-2.1-6.6-2.1-10.2c0-3.7,0.6-7.1,2.1-10.3s3.2-6,5.8-8.4c2.4-2.4,5.3-4.4,8.5-5.8s6.8-2.1,10.5-2.1s7.1,0.6,10.3,2.1
		s6.1,3.4,8.5,5.8s4.4,5.2,5.8,8.4s2.1,6.6,2.1,10.3C163.4,66.5,162.7,69.9,161.3,73.2z"/>
	<path class="st1" d="M238.4,30.9c-2.4-2.4-5.3-4.2-8.7-5.6c-3.4-1.3-6.8-2.1-10.5-2.1h-28.5v79.4h15.5V76.7h13.2
		c3.7,0,7.3-0.6,10.6-2.1c3.4-1.3,6.3-3.2,8.7-5.6s4.4-5.3,5.8-8.5c1.5-3.2,2.1-6.8,2.1-10.6c0-3.7-0.6-7.3-2.1-10.5
		C242.9,36.3,241,33.4,238.4,30.9z M229.9,55.6c-0.8,1.8-1.8,3.4-3.1,4.8c-1.3,1.5-2.9,2.6-4.7,3.4c-1.8,0.8-3.7,1.3-5.8,1.3h-10.2
		v-30h10.2c2.1,0,4,0.3,5.8,1.1s3.4,1.9,4.7,3.2s2.4,2.9,3.1,4.7c0.8,1.8,1.1,3.7,1.1,5.8C231,51.9,230.7,53.8,229.9,55.6z"/>
	<path class="st1" d="M304,66.7c-1.8-1.9-4-3.9-6.9-5.5s-6.3-3.2-10.2-4.5c-3.1-1.1-5.6-2.1-7.7-3.1s-3.7-1.9-5-2.9
		s-2.1-1.9-2.7-2.9c-0.5-1-0.8-2.1-0.8-3.4c0-1.1,0.3-2.3,0.8-3.2c0.5-1,1.3-1.9,2.3-2.7s2.1-1.5,3.4-1.8c1.3-0.5,2.7-0.6,4.2-0.6
		c3.4,0,6.1,0.5,8.7,1.6c2.4,1,4.7,2.6,6.6,4.4l10.8-10.8c-3.2-3.1-6.9-5.3-11.1-6.9s-9.3-2.4-15.5-2.4c-3.7,0-7.1,0.5-10.2,1.6
		c-3.2,1.1-6,2.7-8.2,4.7c-2.4,2.1-4.2,4.5-5.6,7.3c-1.3,2.9-2.1,6-2.1,9.3c0,3.5,0.6,6.6,1.8,9.2c1.3,2.6,2.9,4.8,4.8,6.8
		c2.1,1.9,4.4,3.5,7.1,5c2.7,1.3,5.5,2.6,8.4,3.5c3.4,1.1,6,2.3,8.2,3.2c2.1,1,3.7,1.9,5,2.9c1.1,1,2.1,1.9,2.4,2.9
		c0.5,1,0.6,2.1,0.6,3.4c0,1.1-0.3,2.3-0.8,3.2c-0.5,1-1.3,1.9-2.3,2.6c-1,0.8-2.1,1.3-3.4,1.8s-2.7,0.6-4.2,0.6
		c-3.5,0-6.9-0.5-10-1.6s-6.1-2.9-9.3-5.6l-11,11c2.4,1.9,4.7,3.5,6.9,5c2.3,1.3,4.5,2.4,6.9,3.4c2.4,0.8,5,1.5,7.7,1.9
		c2.7,0.3,5.8,0.6,9.3,0.6c3.9,0,7.4-0.6,10.5-1.8c3.1-1.1,6-2.9,8.2-5c2.3-2.1,4.2-4.4,5.5-7.1s1.9-5.5,1.9-8.5
		c0-3.1-0.5-6-1.3-8.4C307.2,70.9,305.9,68.8,304,66.7z"/>
	<rect x="320.3" y="23.4" class="st1" width="15.5" height="79.4"/>
	<path class="st2" d="M97,98.3c-8.7,8.4-20.6,13.5-33.7,13.5c-27.1,0-48.8-21.9-48.8-48.8c0-27.1,21.9-48.8,48.8-48.8
		c13.1,0,24.8,5.2,33.7,13.4c0.6-0.6,1.3-1.5,2.1-2.1c2.7-2.7,5.8-5,9.2-7.1C96.9,7,80.9,0,63.5,0C28.5,0,0,28.2,0,63
		s28.4,63,63.5,63c17.6,0,33.4-7.1,44.8-18.5c-3.4-2.1-6.3-4.4-9.2-7.1C98.3,99.7,97.6,99.1,97,98.3z"/>
</g>
</svg>
